<?xml version="1.0" encoding="utf-8"?>
<!-- Generator: Adobe Illustrator 21.0.0, SVG Export Plug-In . SVG Version: 6.00 Build 0)  -->
<svg version="1.1" id="Layer_1" xmlns="http://www.w3.org/2000/svg" xmlns:xlink="http://www.w3.org/1999/xlink" x="0px" y="0px"
	 viewBox="0 0 128 128" style="enable-background:new 0 0 128 128;" xml:space="preserve">
<style type="text/css">
	.st0{fill:#CFF1FB;}
	.st1{fill:#91DEF5;}
	.st2{fill:#F6F7F7;}
	.st3{fill:#FFCFB8;}
	.st4{fill:#FFA77B;}
	.st5{fill:#E9EAEB;}
	.st6{fill:#746887;}
	.st7{fill:#F98770;}
	.st8{fill:#9B9B9B;}
	.st9{fill:#FFDDCF;}
	.st10{fill:#FFFFFF;}
	.st11{fill:#B7B7B7;}
	.st12{fill:#FFBC99;}
	.st13{fill:#DBDCDE;}
	.st14{fill:#FECFBA;}
	.st15{fill:#D0F1FA;}
	.st16{fill:#FDA77F;}
	.st17{fill:#94DEF4;}
</style>
<g>
	<g>
		<path class="st0" d="M114.5,17.999h-101c-6.627,0-12,5.367-12,11.987v80.016l17.805-13.688c2.077-1.556,4.604-2.397,7.2-2.397
			H114.5c6.6,0,12-5.394,12-11.987V29.986C126.5,23.365,121.127,17.999,114.5,17.999z"/>
		<path class="st3" d="M60.364,40.925h-4.619l1.235-4.687c0.285-1.082-0.532-2.142-1.653-2.142h-5.58
			c-0.776,0-1.455,0.523-1.653,1.273l-1.464,5.556H35.238l1.235-4.687c0.285-1.082-0.532-2.142-1.653-2.142h-5.58
			c-0.776,0-1.455,0.523-1.653,1.273l-1.464,5.556h-5.518c-0.776,0-1.455,0.523-1.653,1.273l-1.499,5.69
			c-0.285,1.082,0.532,2.142,1.653,2.142h4.619l-2.998,11.38h-5.518c-0.776,0-1.455,0.523-1.653,1.273l-1.499,5.69
			c-0.285,1.082,0.532,2.141,1.653,2.141h4.619l-1.235,4.687c-0.285,1.083,0.532,2.141,1.653,2.141h5.58
			c0.776,0,1.455-0.523,1.653-1.273l1.464-5.556h11.393l-1.235,4.687c-0.285,1.083,0.532,2.141,1.653,2.141h5.58
			c0.776,0,1.455-0.523,1.653-1.273l1.464-5.556h5.518c0.776,0,1.455-0.523,1.653-1.273l1.499-5.69
			c0.285-1.082-0.532-2.141-1.653-2.141h-4.619l2.998-11.38h5.518c0.776,0,1.455-0.523,1.653-1.273l1.499-5.69
			C62.302,41.984,61.485,40.925,60.364,40.925z M43.668,52.171l-2.099,7.966c-0.198,0.75-0.876,1.273-1.653,1.273h-7.859
			c-1.12,0-1.938-1.059-1.653-2.141l2.099-7.966c0.198-0.75,0.876-1.273,1.653-1.273h7.859
			C43.136,50.03,43.954,51.089,43.668,52.171z"/>
		<ellipse class="st1" cx="71.704" cy="57.872" rx="5.778" ry="5.771"/>
		<ellipse class="st1" cx="90.963" cy="57.872" rx="5.778" ry="5.771"/>
		<ellipse class="st1" cx="110.222" cy="57.872" rx="5.778" ry="5.771"/>
	</g>
	<g>
		<path class="st6" d="M99.376,92.417H26.505c-2.901,0-5.778,0.958-8.115,2.709L3,106.958V29.985c0-5.784,4.71-10.489,10.5-10.489
			h8.325c0.829,0,1.5-0.671,1.5-1.498s-0.671-1.498-1.5-1.498H13.5C6.056,16.5,0,22.549,0,29.985v80.016
			c0,0.571,0.325,1.093,0.837,1.344c0.21,0.103,0.437,0.154,0.663,0.154c0.325,0,0.647-0.105,0.915-0.311l17.79-13.676
			c1.806-1.353,4.044-2.098,6.3-2.098h72.872c0.829,0,1.5-0.671,1.5-1.498C100.876,93.088,100.205,92.417,99.376,92.417z"/>
		<path class="st6" d="M114.5,16.5H29.446c-0.829,0-1.5,0.671-1.5,1.498s0.671,1.498,1.5,1.498H114.5c5.79,0,10.5,4.705,10.5,10.489
			v51.943c0,5.784-4.71,10.489-10.5,10.489h-7.443c-0.829,0-1.5,0.671-1.5,1.498c0,0.827,0.671,1.498,1.5,1.498h7.443
			c7.444,0,13.5-6.049,13.5-13.485V29.985C128,22.549,121.944,16.5,114.5,16.5z"/>
		<path class="st7" d="M60.364,39.427h-2.673l0.74-2.807c0.255-0.969,0.05-1.979-0.562-2.772c-0.612-0.793-1.539-1.249-2.542-1.249
			h-5.58c-1.457,0-2.732,0.982-3.103,2.389l-1.169,4.439h-8.291l0.739-2.807c0.255-0.969,0.05-1.979-0.562-2.772
			c-0.612-0.794-1.539-1.249-2.542-1.249h-5.58c-1.456,0-2.732,0.982-3.104,2.389l-1.169,4.439h-4.362
			c-1.457,0-2.732,0.982-3.104,2.389l-1.499,5.69c-0.255,0.97-0.05,1.98,0.562,2.773c0.612,0.794,1.539,1.249,2.542,1.249h2.673
			l-2.209,8.383h-4.362c-1.456,0-2.732,0.982-3.104,2.39l-1.499,5.69c-0.255,0.969-0.05,1.979,0.562,2.772s1.539,1.249,2.542,1.249
			h2.673l-0.739,2.807c-0.255,0.969-0.05,1.979,0.562,2.772c0.612,0.794,1.539,1.249,2.542,1.249h5.58
			c1.456,0,2.732-0.982,3.104-2.39l1.169-4.439h8.291l-0.74,2.807c-0.255,0.969-0.05,1.979,0.562,2.772
			c0.612,0.793,1.539,1.249,2.542,1.249h5.58c1.456,0,2.732-0.982,3.104-2.39l1.169-4.439h4.362c1.457,0,2.733-0.983,3.103-2.39
			l1.499-5.69c0.255-0.969,0.05-1.979-0.562-2.772c-0.612-0.793-1.538-1.249-2.541-1.249h-2.673l2.208-8.383h4.362
			c1.456,0,2.732-0.982,3.104-2.39l1.499-5.69c0.255-0.969,0.05-1.979-0.562-2.772C62.293,39.882,61.367,39.427,60.364,39.427z
			 M60.518,48.757h0.01H60.518z M59.067,48.375c-0.024,0.092-0.107,0.156-0.202,0.156h-5.519c-0.682,0-1.277,0.458-1.451,1.117
			l-2.998,11.38c-0.118,0.45-0.021,0.929,0.263,1.296s0.723,0.583,1.188,0.583h4.619c0.068,0,0.124,0.027,0.165,0.081
			c0.042,0.055,0.054,0.115,0.037,0.18l-1.499,5.691c-0.024,0.092-0.107,0.155-0.202,0.155H47.95c-0.682,0-1.277,0.458-1.451,1.117
			l-1.463,5.555c-0.024,0.092-0.107,0.156-0.202,0.156h-5.58c-0.068,0-0.124-0.027-0.166-0.081c-0.042-0.055-0.054-0.115-0.037-0.18
			l1.235-4.687c0.118-0.45,0.021-0.929-0.263-1.296c-0.284-0.368-0.723-0.583-1.188-0.583H27.443c-0.682,0-1.277,0.458-1.451,1.117
			l-1.463,5.555c-0.024,0.092-0.107,0.156-0.202,0.156h-5.58c-0.068,0-0.124-0.027-0.165-0.081s-0.054-0.115-0.037-0.18l1.234-4.687
			c0.118-0.45,0.021-0.929-0.263-1.296c-0.284-0.368-0.723-0.583-1.188-0.583H13.71c-0.068,0-0.124-0.027-0.166-0.081
			c-0.042-0.055-0.054-0.115-0.037-0.18l1.499-5.69c0.024-0.092,0.107-0.156,0.202-0.156h5.518c0.681,0,1.277-0.458,1.451-1.117
			l2.999-11.38c0.118-0.45,0.021-0.929-0.263-1.296s-0.723-0.583-1.188-0.583h-4.619c-0.068,0-0.124-0.027-0.166-0.081
			c-0.042-0.055-0.054-0.115-0.037-0.181l1.499-5.69c0.024-0.092,0.107-0.155,0.202-0.155h5.519c0.682,0,1.277-0.458,1.451-1.117
			l1.463-5.555c0.024-0.092,0.107-0.156,0.203-0.156h5.58c0.068,0,0.124,0.027,0.165,0.081c0.042,0.054,0.054,0.115,0.037,0.18
			l-1.234,4.687c-0.118,0.45-0.021,0.929,0.263,1.296s0.723,0.583,1.188,0.583h11.393c0.682,0,1.277-0.458,1.451-1.117l1.464-5.556
			c0.024-0.092,0.107-0.155,0.202-0.155h5.58c0.068,0,0.124,0.027,0.166,0.081c0.042,0.055,0.054,0.115,0.037,0.18l-1.235,4.687
			c-0.118,0.45-0.021,0.929,0.263,1.296s0.723,0.583,1.188,0.583h4.619c0.068,0,0.124,0.027,0.166,0.081
			c0.042,0.054,0.054,0.115,0.036,0.18L59.067,48.375z"/>
		<path class="st7" d="M42.016,48.532h-7.858c-1.456,0-2.732,0.982-3.104,2.389l-2.099,7.967c-0.255,0.969-0.05,1.979,0.562,2.772
			c0.612,0.793,1.539,1.249,2.542,1.249h7.858c1.456,0,2.732-0.982,3.104-2.39l2.099-7.966c0.255-0.969,0.05-1.979-0.562-2.772
			C43.945,48.986,43.019,48.532,42.016,48.532z M40.119,59.756c-0.024,0.092-0.107,0.156-0.202,0.156h-7.858
			c-0.068,0-0.124-0.027-0.166-0.081c-0.042-0.055-0.054-0.115-0.037-0.18l2.098-7.966c0.024-0.092,0.107-0.156,0.203-0.156h7.858
			c0.068,0,0.124,0.027,0.166,0.081c0.042,0.054,0.054,0.115,0.036,0.18L40.119,59.756z"/>
		<path class="st6" d="M71.704,50.602c-4.013,0-7.278,3.261-7.278,7.269c0,4.009,3.265,7.27,7.278,7.27s7.278-3.261,7.278-7.27
			C78.981,53.864,75.717,50.602,71.704,50.602z M71.704,62.146c-2.359,0-4.278-1.917-4.278-4.274c0-2.356,1.919-4.273,4.278-4.273
			s4.278,1.917,4.278,4.273C75.981,60.229,74.062,62.146,71.704,62.146z"/>
		<path class="st6" d="M90.963,50.602c-4.013,0-7.278,3.261-7.278,7.269c0,4.009,3.265,7.27,7.278,7.27s7.278-3.261,7.278-7.27
			C98.241,53.864,94.976,50.602,90.963,50.602z M90.963,62.146c-2.359,0-4.278-1.917-4.278-4.274c0-2.356,1.919-4.273,4.278-4.273
			s4.278,1.917,4.278,4.273C95.241,60.229,93.322,62.146,90.963,62.146z"/>
		<path class="st6" d="M110.222,50.602c-4.013,0-7.278,3.261-7.278,7.269c0,4.009,3.265,7.27,7.278,7.27s7.278-3.261,7.278-7.27
			C117.5,53.864,114.235,50.602,110.222,50.602z M110.222,62.146c-2.359,0-4.278-1.917-4.278-4.274c0-2.356,1.919-4.273,4.278-4.273
			s4.278,1.917,4.278,4.273C114.5,60.229,112.581,62.146,110.222,62.146z"/>
	</g>
</g>
<g>
</g>
</svg>
