<?xml version="1.0" encoding="UTF-8"?>
<!DOCTYPE svg PUBLIC "-//W3C//DTD SVG 1.1//EN" "http://www.w3.org/Graphics/SVG/1.1/DTD/svg11.dtd">
<!-- Creator: CorelDRAW -->
<svg xmlns="http://www.w3.org/2000/svg" xml:space="preserve" width="2048px" height="2048px" style="shape-rendering:geometricPrecision; text-rendering:geometricPrecision; image-rendering:optimizeQuality; fill-rule:evenodd; clip-rule:evenodd"
viewBox="0 0 2048 2048"
 xmlns:xlink="http://www.w3.org/1999/xlink">
 <defs>
  <style type="text/css">
   <![CDATA[
    .fil2 {fill:none}
    .fil1 {fill:#7CB342}
    .fil0 {fill:#AED581}
    .fil3 {fill:#FF9100}
    .fil4 {fill:#E0F2F1;fill-rule:nonzero}
   ]]>
  </style>
   <clipPath id="id0">
    <path d="M1024 -0.0011811c565.539,0 1024,458.462 1024,1024 0,565.539 -458.462,1024 -1024,1024 -565.539,0 -1024,-458.462 -1024,-1024 0,-565.539 458.462,-1024 1024,-1024z"/>
   </clipPath>
 </defs>
 <g id="Layer_x0020_1">
  <metadata id="CorelCorpID_0Corel-Layer"/>
  <path class="fil0" d="M1024 -0.0011811c565.539,0 1024,458.462 1024,1024 0,565.539 -458.462,1024 -1024,1024 -565.539,0 -1024,-458.462 -1024,-1024 0,-565.539 458.462,-1024 1024,-1024z"/>
  <g style="clip-path:url(#id0)">
   <g id="_466501568">
    <g>
     <polygon id="_4620364161" class="fil1" points="1421.61,514.173 2557.49,1650.06 2559.74,1652.72 2561.93,1655.43 2564.05,1658.2 2566.11,1661.02 2568.1,1663.89 2570.02,1666.82 2571.88,1669.79 2573.66,1672.8 2575.37,1675.87 2577.01,1678.97 2578.58,1682.13 2580.07,1685.32 2581.49,1688.56 2582.83,1691.83 2584.09,1695.15 2585.27,1698.5 2586.37,1701.9 2587.39,1705.32 2588.33,1708.78 2589.18,1712.28 2589.95,1715.81 2590.63,1719.37 2591.22,1722.96 2591.73,1726.58 2592.15,1730.22 2592.47,1733.9 2592.71,1737.6 2592.85,1741.32 2592.9,1745.07 1457.02,609.185 1456.97,605.438 1456.83,601.714 1456.59,598.015 1456.27,594.342 1455.85,590.695 1455.34,587.076 1454.75,583.486 1454.07,579.926 1453.3,576.398 1452.45,572.902 1451.51,569.441 1450.49,566.013 1449.39,562.622 1448.21,559.268 1446.94,555.951 1445.61,552.675 1444.19,549.439 1442.7,546.244 1441.13,543.091 1439.49,539.984 1437.78,536.92 1436,533.904 1434.14,530.933 1432.22,528.012 1430.23,525.141 1428.17,522.32 1426.05,519.551 1423.86,516.835 "/>
     <polygon id="_462037232" class="fil1" points="1457.02,609.185 2592.9,1745.07 2592.85,1748.81 2592.71,1752.54 2592.47,1756.24 2592.15,1759.91 2591.73,1763.56 2591.22,1767.18 2590.63,1770.77 2589.95,1774.33 2589.18,1777.85 2588.33,1781.35 2587.39,1784.81 2586.37,1788.24 2585.27,1791.63 2584.09,1794.99 2582.83,1798.3 2581.49,1801.58 2580.07,1804.81 2578.58,1808.01 2577.01,1811.16 2575.37,1814.27 2573.66,1817.33 2571.88,1820.35 2570.02,1823.32 2568.1,1826.24 2566.11,1829.11 2564.05,1831.93 2561.93,1834.7 2559.74,1837.42 2557.49,1840.08 2555.18,1842.69 2552.8,1845.24 2550.37,1847.73 1414.49,711.845 1416.92,709.353 1419.3,706.803 1421.61,704.196 1423.86,701.535 1426.05,698.82 1428.17,696.05 1430.23,693.23 1432.22,690.358 1434.14,687.438 1435.99,684.467 1437.78,681.451 1439.49,678.388 1441.13,675.279 1442.7,672.127 1444.19,668.932 1445.61,665.696 1446.94,662.419 1448.21,659.103 1449.39,655.749 1450.49,652.358 1451.51,648.93 1452.45,645.467 1453.3,641.972 1454.07,638.443 1454.75,634.884 1455.34,631.294 1455.85,627.675 1456.27,624.029 1456.59,620.354 1456.83,616.655 1456.97,612.931 "/>
     <polygon id="_462044408" class="fil1" points="1414.49,711.845 2550.37,1847.73 2547.88,1850.16 2545.33,1852.53 2542.72,1854.85 2540.06,1857.1 2537.35,1859.29 2534.58,1861.41 2531.76,1863.47 2528.88,1865.46 2525.96,1867.38 2522.99,1869.23 2519.98,1871.02 2516.91,1872.73 2513.8,1874.37 2510.65,1875.94 2507.46,1877.43 2504.22,1878.84 2500.94,1880.18 2497.63,1881.44 2494.27,1882.62 2490.88,1883.73 2487.46,1884.75 2483.99,1885.68 2480.5,1886.53 2476.97,1887.3 2473.41,1887.99 2469.82,1888.58 2466.2,1889.09 2462.55,1889.5 2458.88,1889.83 2455.18,1890.06 2451.46,1890.21 2447.71,1890.25 1311.83,754.371 1315.58,754.323 1319.3,754.182 1323,753.948 1326.67,753.621 1330.32,753.204 1333.94,752.698 1337.53,752.103 1341.09,751.421 1344.62,750.653 1348.11,749.8 1351.57,748.863 1355,747.843 1358.39,746.742 1361.75,745.561 1365.06,744.299 1368.34,742.961 1371.58,741.545 1374.77,740.053 1377.92,738.487 1381.03,736.847 1384.09,735.134 1387.11,733.351 1390.08,731.497 1393,729.575 1395.87,727.583 1398.69,725.527 1401.46,723.403 1404.18,721.216 1406.84,718.966 1409.45,716.652 1412,714.279 "/>
     <polygon id="_462015416" class="fil1" points="1311.83,754.371 2447.71,1890.25 2444.85,1890.23 2442.01,1890.14 2439.17,1890.01 2436.36,1889.81 2433.55,1889.57 2430.76,1889.27 2427.99,1888.92 2425.24,1888.52 2422.5,1888.07 2419.78,1887.57 2417.07,1887.01 2414.39,1886.41 2411.73,1885.76 2409.08,1885.06 2406.45,1884.31 2403.85,1883.51 2401.26,1882.66 2398.7,1881.77 2396.16,1880.83 2393.64,1879.85 2391.15,1878.82 2388.68,1877.75 2386.23,1876.63 2383.81,1875.47 2381.41,1874.26 2379.04,1873.01 2376.69,1871.72 2374.37,1870.39 2372.08,1869.02 2369.81,1867.6 2367.58,1866.15 2365.37,1864.66 1229.49,728.774 1231.69,730.268 1233.93,731.722 1236.2,733.136 1238.49,734.508 1240.81,735.84 1243.15,737.13 1245.53,738.379 1247.92,739.583 1250.35,740.745 1252.8,741.864 1255.27,742.938 1257.76,743.968 1260.28,744.951 1262.82,745.889 1265.38,746.781 1267.97,747.625 1270.57,748.424 1273.2,749.174 1275.84,749.875 1278.51,750.529 1281.19,751.132 1283.9,751.685 1286.62,752.189 1289.36,752.642 1292.11,753.042 1294.88,753.392 1297.67,753.689 1300.47,753.932 1303.29,754.124 1306.12,754.261 1308.97,754.343 "/>
     <polygon id="_462041480" class="fil1" points="1229.49,728.774 2365.37,1864.66 2011.18,2143.64 875.296,1007.76 "/>
     <polygon id="_462013064" class="fil1" points="875.296,1007.76 2011.18,2143.64 2011.54,2144.88 2011.89,2146.12 2012.24,2147.37 2012.57,2148.62 2012.89,2149.88 2013.2,2151.14 2013.5,2152.41 2013.79,2153.68 2014.06,2154.95 2014.33,2156.23 2014.58,2157.51 2014.83,2158.8 2015.06,2160.09 2015.28,2161.38 2015.49,2162.68 2015.69,2163.98 2015.87,2165.29 2016.05,2166.59 2016.21,2167.91 2016.36,2169.22 2016.5,2170.54 2016.63,2171.87 2016.74,2173.19 2016.84,2174.52 2016.94,2175.86 2017.02,2177.19 2017.08,2178.53 2017.14,2179.88 2017.18,2181.22 2017.21,2182.57 2017.23,2183.92 2017.24,2185.28 881.356,1049.4 881.35,1048.04 881.331,1046.69 881.3,1045.34 881.257,1043.99 881.202,1042.65 881.135,1041.31 881.055,1039.97 880.964,1038.64 880.86,1037.31 880.744,1035.98 880.616,1034.66 880.478,1033.34 880.327,1032.03 880.164,1030.71 879.99,1029.4 879.804,1028.1 879.607,1026.8 879.398,1025.5 879.178,1024.2 878.945,1022.91 878.703,1021.63 878.448,1020.35 878.182,1019.07 877.906,1017.79 877.618,1016.52 877.319,1015.26 877.009,1014 876.688,1012.74 876.356,1011.49 876.014,1010.24 875.659,1009 "/>
     <polygon id="_462030320" class="fil1" points="881.356,1049.4 2017.24,2185.28 2017.23,2187.04 2017.2,2188.8 2017.14,2190.56 2017.07,2192.3 2016.98,2194.05 2016.86,2195.78 2016.73,2197.52 2016.57,2199.24 2016.4,2200.96 2016.21,2202.67 2015.99,2204.38 2015.76,2206.08 2015.5,2207.78 2015.23,2209.47 2014.94,2211.15 2014.63,2212.83 2014.3,2214.5 2013.95,2216.16 2013.58,2217.81 2013.19,2219.46 2012.78,2221.1 2012.36,2222.74 2011.91,2224.36 2011.45,2225.98 2010.97,2227.59 2010.48,2229.19 2009.96,2230.79 2009.43,2232.37 2008.88,2233.95 2008.31,2235.52 2007.72,2237.08 2007.12,2238.64 871.236,1102.75 871.84,1101.2 872.427,1099.64 872.995,1098.07 873.546,1096.49 874.08,1094.91 874.595,1093.31 875.094,1091.71 875.573,1090.1 876.034,1088.48 876.478,1086.85 876.902,1085.22 877.308,1083.58 877.696,1081.93 878.064,1080.28 878.415,1078.61 878.746,1076.95 879.057,1075.27 879.349,1073.59 879.622,1071.9 879.876,1070.2 880.11,1068.5 880.325,1066.79 880.518,1065.08 880.693,1063.36 880.848,1061.63 880.981,1059.9 881.096,1058.16 881.189,1056.42 881.261,1054.67 881.314,1052.92 881.345,1051.16 "/>
     <polygon id="_462017000" class="fil1" points="1414.49,1336.15 2550.37,2472.04 2552.8,2474.53 2555.18,2477.08 2557.49,2479.69 2559.74,2482.35 2561.93,2485.06 2564.05,2487.83 2566.11,2490.65 2568.1,2493.52 2570.02,2496.44 2571.88,2499.42 2573.66,2502.43 2575.37,2505.49 2577.01,2508.6 2578.58,2511.76 2580.07,2514.95 2581.49,2518.19 2582.83,2521.46 2584.09,2524.78 2585.27,2528.13 2586.37,2531.52 2587.39,2534.95 2588.33,2538.42 2589.18,2541.91 2589.95,2545.44 2590.63,2549 2591.22,2552.59 2591.73,2556.21 2592.15,2559.85 2592.47,2563.53 2592.71,2567.23 2592.85,2570.95 2592.9,2574.7 1457.02,1438.82 1456.97,1435.07 1456.83,1431.34 1456.59,1427.65 1456.27,1423.97 1455.85,1420.33 1455.34,1416.71 1454.75,1413.12 1454.07,1409.56 1453.3,1406.03 1452.45,1402.53 1451.51,1399.07 1450.49,1395.64 1449.39,1392.25 1448.21,1388.9 1446.94,1385.58 1445.61,1382.3 1444.19,1379.07 1442.7,1375.87 1441.13,1372.72 1439.49,1369.61 1437.78,1366.55 1435.99,1363.53 1434.14,1360.56 1432.22,1357.64 1430.23,1354.77 1428.17,1351.95 1426.05,1349.18 1423.86,1346.46 1421.61,1343.8 1419.3,1341.2 1416.92,1338.65 "/>
     <polygon id="_462032048" class="fil1" points="1457.02,1438.82 2592.9,2574.7 2592.85,2578.44 2592.71,2582.17 2592.47,2585.87 2592.15,2589.54 2591.73,2593.19 2591.22,2596.81 2590.63,2600.4 2589.95,2603.96 2589.18,2607.48 2588.33,2610.98 2587.39,2614.44 2586.37,2617.87 2585.27,2621.26 2584.09,2624.61 2582.83,2627.93 2581.49,2631.21 2580.07,2634.44 2578.58,2637.64 2577.01,2640.79 2575.37,2643.9 2573.66,2646.96 2571.88,2649.98 2570.02,2652.95 2568.1,2655.87 2566.11,2658.74 2564.05,2661.56 2561.93,2664.33 2559.74,2667.05 2557.49,2669.71 2555.18,2672.32 2552.8,2674.87 2550.37,2677.36 1414.49,1541.48 1416.92,1538.98 1419.3,1536.43 1421.61,1533.83 1423.86,1531.16 1426.05,1528.45 1428.17,1525.68 1430.23,1522.86 1432.22,1519.99 1434.14,1517.07 1436,1514.1 1437.78,1511.08 1439.49,1508.02 1441.13,1504.91 1442.7,1501.76 1444.19,1498.56 1445.61,1495.33 1446.94,1492.05 1448.21,1488.73 1449.39,1485.38 1450.49,1481.99 1451.51,1478.56 1452.45,1475.1 1453.3,1471.6 1454.07,1468.07 1454.75,1464.51 1455.34,1460.92 1455.85,1457.31 1456.27,1453.66 1456.59,1449.98 1456.83,1446.29 1456.97,1442.56 "/>
     <polygon id="_462039056" class="fil1" points="1168.33,1416.64 2304.21,2552.52 1932.36,2317.38 796.483,1181.5 "/>
     <polygon id="_462041432" class="fil1" points="1311.83,1584 2447.71,2719.88 2443.96,2719.84 2440.24,2719.69 2436.54,2719.46 2432.87,2719.13 2429.22,2718.72 2425.6,2718.21 2422.01,2717.62 2418.45,2716.93 2414.93,2716.17 2411.43,2715.31 2407.97,2714.37 2404.54,2713.36 2401.15,2712.25 2397.79,2711.07 2394.48,2709.81 2391.2,2708.47 2387.96,2707.06 2384.77,2705.57 2381.62,2704 2378.51,2702.36 2375.45,2700.65 2372.43,2698.86 2369.46,2697.01 2366.54,2695.09 2363.67,2693.1 2360.85,2691.04 2358.08,2688.92 2355.36,2686.73 2352.7,2684.48 2350.09,2682.17 2347.54,2679.79 1211.66,1543.91 1214.21,1546.28 1216.82,1548.6 1219.48,1550.85 1222.2,1553.03 1224.97,1555.16 1227.79,1557.21 1230.66,1559.2 1233.58,1561.13 1236.55,1562.98 1239.57,1564.76 1242.63,1566.48 1245.74,1568.12 1248.89,1569.68 1252.08,1571.17 1255.32,1572.59 1258.6,1573.93 1261.91,1575.19 1265.27,1576.37 1268.66,1577.47 1272.09,1578.49 1275.55,1579.43 1279.04,1580.28 1282.57,1581.05 1286.13,1581.73 1289.72,1582.33 1293.34,1582.83 1296.99,1583.25 1300.66,1583.58 1304.36,1583.81 1308.08,1583.95 "/>
     <polygon id="_462029072" class="fil1" points="1414.49,1541.48 2550.37,2677.36 2547.88,2679.79 2545.33,2682.17 2542.72,2684.48 2540.06,2686.73 2537.35,2688.92 2534.58,2691.04 2531.76,2693.1 2528.88,2695.09 2525.96,2697.01 2522.99,2698.86 2519.98,2700.65 2516.91,2702.36 2513.8,2704 2510.65,2705.57 2507.46,2707.06 2504.22,2708.47 2500.94,2709.81 2497.63,2711.07 2494.27,2712.25 2490.88,2713.36 2487.46,2714.37 2483.99,2715.31 2480.5,2716.17 2476.97,2716.93 2473.41,2717.62 2469.82,2718.21 2466.2,2718.72 2462.55,2719.13 2458.88,2719.46 2455.18,2719.69 2451.46,2719.84 2447.71,2719.88 1311.83,1584 1315.58,1583.95 1319.3,1583.81 1323,1583.58 1326.67,1583.25 1330.32,1582.83 1333.94,1582.33 1337.53,1581.73 1341.09,1581.05 1344.62,1580.28 1348.11,1579.43 1351.57,1578.49 1355,1577.47 1358.39,1576.37 1361.75,1575.19 1365.06,1573.93 1368.34,1572.59 1371.58,1571.18 1374.77,1569.68 1377.92,1568.12 1381.03,1566.48 1384.09,1564.76 1387.11,1562.98 1390.08,1561.13 1393,1559.2 1395.87,1557.21 1398.69,1555.16 1401.46,1553.03 1404.18,1550.85 1406.84,1548.6 1409.45,1546.28 1412,1543.91 "/>
     <polygon id="_462037664" class="fil1" points="796.483,1181.5 1932.36,2317.38 1930.64,2318.16 1928.9,2318.91 1927.14,2319.65 1925.38,2320.36 1923.61,2321.04 1921.82,2321.71 1920.02,2322.35 1918.22,2322.97 1916.4,2323.57 1914.57,2324.14 1912.73,2324.69 1910.88,2325.21 1909.02,2325.72 1907.15,2326.19 1905.28,2326.64 1903.39,2327.07 1901.49,2327.48 1899.58,2327.86 1897.67,2328.21 1895.75,2328.54 1893.82,2328.85 1891.87,2329.12 1889.93,2329.38 1887.97,2329.6 1886,2329.8 1884.03,2329.98 1882.05,2330.13 1880.07,2330.25 1878.07,2330.34 1876.07,2330.41 1874.06,2330.45 1872.05,2330.47 736.17,1194.58 738.184,1194.57 740.192,1194.53 742.192,1194.46 744.186,1194.37 746.173,1194.24 748.152,1194.1 750.123,1193.92 752.088,1193.72 754.045,1193.49 755.993,1193.24 757.934,1192.96 759.865,1192.66 761.789,1192.33 763.704,1191.98 765.61,1191.6 767.507,1191.19 769.394,1190.76 771.272,1190.31 773.142,1189.83 775,1189.33 776.849,1188.81 778.688,1188.26 780.517,1187.68 782.336,1187.09 784.143,1186.47 785.939,1185.83 787.725,1185.16 789.5,1184.47 791.262,1183.76 793.015,1183.03 794.755,1182.28 "/>
     <polygon id="_462018992" class="fil1" points="736.17,1194.58 1872.05,2330.47 1868.3,2330.42 1864.58,2330.28 1860.88,2330.04 1857.21,2329.72 1853.56,2329.3 1849.94,2328.79 1846.35,2328.2 1842.79,2327.52 1839.26,2326.75 1835.77,2325.89 1832.31,2324.96 1828.88,2323.94 1825.49,2322.84 1822.13,2321.65 1818.82,2320.39 1815.54,2319.05 1812.3,2317.64 1809.11,2316.15 1805.96,2314.58 1802.85,2312.94 1799.79,2311.23 1796.77,2309.45 1793.8,2307.59 1790.88,2305.67 1788.01,2303.68 1785.19,2301.62 1782.42,2299.5 1779.7,2297.31 1777.04,2295.06 1774.43,2292.75 638.552,1156.86 641.158,1159.18 643.821,1161.43 646.536,1163.62 649.306,1165.74 652.126,1167.8 654.997,1169.79 657.918,1171.71 660.889,1173.56 663.905,1175.35 666.968,1177.06 670.076,1178.7 673.228,1180.27 676.423,1181.76 679.659,1183.17 682.936,1184.51 686.253,1185.77 689.607,1186.95 692.998,1188.06 696.426,1189.07 699.888,1190.01 703.384,1190.87 706.912,1191.63 710.471,1192.32 714.061,1192.91 717.68,1193.42 721.327,1193.83 725,1194.16 728.699,1194.39 732.423,1194.54 "/>
    </g>
    <path id="_466484528" class="fil1" d="M1311.83 463.999c40.089,0 76.3855,16.252 102.66,42.5256 26.2736,26.2748 42.5256,62.5725 42.5256,102.66 0,40.089 -16.2532,76.3879 -42.5256,102.66 -26.2748,26.2748 -62.5713,42.5256 -102.66,42.5256 -30.5752,0 -58.9441,-9.45355 -82.3442,-25.5969l-354.19 278.986c3.94252,13.1894 6.06024,27.1666 6.06024,41.6374 0,18.8386 -3.58819,36.8386 -10.1197,53.3563l350.899 221.893c24.6921,-19.428 55.8426,-31.017 89.6953,-31.017 40.089,0 76.3855,16.2508 102.66,42.5256 26.2725,26.2725 42.5256,62.5713 42.5256,102.66 0,40.0878 -16.252,76.3855 -42.5256,102.66 -26.2748,26.2736 -62.5713,42.5256 -102.66,42.5256 -40.0878,0 -76.3867,-16.2532 -102.659,-42.5256 -26.2748,-26.2748 -42.5268,-62.5725 -42.5268,-102.66 0,-7.54016 0.575197,-14.9469 1.68307,-22.1788l-371.844 -235.138c-18.3697,8.40119 -38.7957,13.0843 -60.313,13.0843 -40.089,0 -76.3855,-16.252 -102.66,-42.5256 -26.2736,-26.2736 -42.5256,-62.5713 -42.5256,-102.66 0,-40.0878 16.252,-76.3855 42.5256,-102.66 26.2748,-26.2736 62.5713,-42.5256 102.66,-42.5256 26.6941,0 51.7087,7.20709 73.2012,19.7799l360.549 -283.995c-2.14606,-9.93072 -3.27638,-20.2394 -3.27638,-30.8114 0,-40.0878 16.252,-76.3855 42.5268,-102.66 26.2725,-26.2725 62.5713,-42.5256 102.659,-42.5256z"/>
   </g>
  </g>
  <path class="fil2" d="M1024 -0.0011811c565.539,0 1024,458.462 1024,1024 0,565.539 -458.462,1024 -1024,1024 -565.539,0 -1024,-458.462 -1024,-1024 0,-565.539 458.462,-1024 1024,-1024z"/>
  <polygon class="fil3" points="1266.58,699.558 841.319,1034.52 775.442,950.717 1200.7,615.753 "/>
  <polygon class="fil3" points="1203.37,1438.8 768.975,1164.1 825.722,1073.97 1260.12,1348.67 "/>
  <path class="fil4" d="M1311.83 463.999c40.089,0 76.3855,16.252 102.66,42.5256 26.2736,26.2748 42.5256,62.5725 42.5256,102.66 0,40.089 -16.2532,76.3879 -42.5256,102.66 -26.2748,26.2748 -62.5713,42.5256 -102.66,42.5256 -40.0878,0 -76.3855,-16.2508 -102.659,-42.5256 -26.2748,-26.2736 -42.5268,-62.5713 -42.5268,-102.66 0,-40.0878 16.252,-76.3855 42.5268,-102.66 26.2725,-26.2725 62.5713,-42.5256 102.659,-42.5256z"/>
  <path class="fil4" d="M736.17 904.211c40.0878,0 76.3867,16.2532 102.659,42.5256 26.2748,26.2748 42.5268,62.5725 42.5268,102.66 0,40.089 -16.252,76.3867 -42.5268,102.66 -26.2725,26.2725 -62.5713,42.5256 -102.659,42.5256 -40.089,0 -76.3855,-16.252 -102.66,-42.5256 -26.2736,-26.2736 -42.5256,-62.5713 -42.5256,-102.66 0,-40.0878 16.252,-76.3855 42.5256,-102.66 26.2748,-26.2736 62.5713,-42.5256 102.66,-42.5256z"/>
  <path class="fil4" d="M1311.83 1293.63c40.089,0 76.3855,16.2508 102.66,42.5256 26.2725,26.2725 42.5256,62.5713 42.5256,102.66 0,40.0878 -16.252,76.3855 -42.5256,102.66 -26.2748,26.2736 -62.5713,42.5256 -102.66,42.5256 -40.0878,0 -76.3867,-16.2532 -102.659,-42.5256 -26.2748,-26.2748 -42.5268,-62.5725 -42.5268,-102.66 0,-40.089 16.252,-76.3867 42.5268,-102.66 26.2736,-26.2748 62.5713,-42.5256 102.659,-42.5256z"/>
 </g>
</svg>
