<?xml version="1.0" standalone="no"?>
<!DOCTYPE svg PUBLIC "-//W3C//DTD SVG 20010904//EN"
 "http://www.w3.org/TR/2001/REC-SVG-20010904/DTD/svg10.dtd">
<svg version="1.0" xmlns="http://www.w3.org/2000/svg"
 width="318.000000pt" height="318.000000pt" viewBox="0 0 318.000000 318.000000"
 preserveAspectRatio="xMidYMid meet">
<metadata>
Created by potrace 1.14, written by Peter Selinger 2001-2017
</metadata>
<g transform="translate(0.000000,318.000000) scale(0.100000,-0.100000)"
fill="#000000" stroke="none">
<path d="M1366 3164 c-336 -51 -630 -203 -868 -446 -130 -133 -239 -290 -311
-447 -45 -99 -87 -221 -76 -221 5 0 9 6 9 14 0 8 4 17 9 20 5 3 3 -15 -5 -42
-31 -100 -55 -248 -59 -359 -4 -113 3 -152 11 -56 4 53 23 207 29 238 2 11 4
26 4 34 1 8 4 12 7 9 3 -4 1 -39 -5 -80 -15 -94 -19 -178 -11 -178 4 0 8 24 9
53 1 28 6 77 11 107 5 30 12 69 15 85 2 17 9 45 14 63 5 18 10 36 11 40 4 42
61 189 106 277 92 179 179 294 319 423 276 255 626 395 985 394 139 -1 153 -2
280 -28 394 -81 730 -312 944 -647 85 -133 168 -330 192 -457 3 -14 10 -45 15
-68 19 -88 28 -358 14 -452 -3 -19 -8 -53 -11 -75 -27 -195 -118 -423 -245
-611 -51 -76 -134 -175 -153 -184 -6 -3 -12 -11 -14 -19 -3 -12 -1 -12 15 0
10 8 25 21 33 30 8 8 35 33 59 55 l45 39 -31 -45 c-62 -91 -267 -275 -358
-322 -17 -9 -39 -26 -50 -38 -11 -12 -46 -35 -77 -51 -32 -16 -58 -32 -58 -34
0 -3 8 -2 18 3 9 5 40 20 67 32 67 30 156 85 235 144 81 60 229 205 277 269
19 26 40 44 45 40 7 -3 8 -1 4 5 -3 6 16 45 44 88 27 42 50 83 50 90 0 8 5 14
11 14 6 0 9 6 6 14 -3 8 3 23 14 35 11 12 17 21 13 21 -3 0 -1 7 6 15 7 8 9
15 5 15 -4 0 -3 6 3 12 26 33 107 302 117 393 3 22 8 58 12 80 10 61 11 288 1
307 -6 13 -5 16 6 12 9 -3 13 -20 13 -50 0 -24 3 -47 6 -50 3 -4 2 -15 -4 -25
-7 -13 -6 -19 1 -19 6 0 8 -5 5 -11 -4 -5 -8 -54 -10 -107 -2 -53 -11 -133
-19 -177 -9 -44 -19 -96 -22 -115 -3 -19 -9 -39 -12 -45 -3 -5 -7 -16 -8 -25
-4 -26 -12 -54 -25 -85 -7 -16 -13 -32 -13 -35 -1 -3 -8 -21 -17 -40 -9 -19
-23 -50 -30 -68 -8 -17 -18 -32 -23 -32 -4 0 -6 -7 -2 -15 3 -8 1 -15 -4 -15
-5 0 -14 -16 -21 -35 -7 -19 -16 -35 -20 -35 -4 0 -14 -16 -23 -35 -9 -19 -21
-35 -27 -35 -6 0 -8 -4 -5 -8 12 -19 -166 -221 -279 -317 -169 -143 -413 -267
-625 -315 -30 -7 -59 -19 -65 -25 -5 -7 -21 -15 -34 -18 -28 -7 -15 8 14 17
11 3 4 3 -15 1 -19 -2 -66 -7 -105 -11 -98 -8 -98 -18 0 -11 84 6 67 1 -85
-22 -60 -9 -56 -10 45 -6 61 3 121 7 135 10 14 3 41 8 60 11 121 22 272 74
405 141 306 153 545 396 699 708 65 131 122 295 112 321 -3 8 -1 14 5 14 6 0
9 7 6 15 -4 8 -1 17 4 21 6 3 9 15 6 25 -3 11 0 19 5 19 6 0 4 8 -3 17 -8 9
-9 14 -2 10 18 -11 28 87 28 278 -1 362 -88 646 -284 919 -60 84 -226 260
-301 318 -204 159 -431 264 -690 319 -130 27 -379 34 -514 13z m-1210 -1120
c-8 -21 -15 -34 -15 -28 -1 15 20 76 25 71 2 -2 -2 -21 -10 -43z m-21 -88 c-4
-20 -11 -36 -15 -36 -4 0 -2 18 3 40 13 48 21 46 12 -4z m2972 -128 c-3 -8 -6
-5 -6 6 -1 11 2 17 5 13 3 -3 4 -12 1 -19z m7 -34 c3 -8 2 -12 -4 -9 -6 3 -10
10 -10 16 0 14 7 11 14 -7z m-265 -1131 c-95 -125 -198 -233 -284 -298 -51
-38 -39 -27 71 70 33 29 96 96 139 149 44 53 81 96 84 96 2 0 -3 -8 -10 -17z
m-344 -343 c-3 -5 -27 -24 -53 -41 -54 -37 -46 -25 13 20 43 33 49 36 40 21z
m-565 -260 c-8 -5 -19 -10 -25 -10 -5 0 -3 5 5 10 8 5 20 10 25 10 6 0 3 -5
-5 -10z"/>
<path d="M1621 2278 c-11 -27 -35 -151 -61 -320 -7 -48 -16 -85 -20 -83 -4 3
-11 25 -14 50 -4 24 -12 47 -18 51 -14 9 -293 8 -307 0 -15 -10 -14 -46 2 -51
6 -3 68 -6 136 -8 l125 -2 24 -127 c20 -106 28 -128 44 -134 37 -11 36 -15
105 376 3 19 6 41 6 48 0 14 10 7 13 -11 11 -71 26 -133 33 -140 8 -8 121 -11
264 -8 34 1 37 3 37 31 0 22 -5 30 -17 31 -10 0 -67 1 -128 2 l-109 2 -8 35
c-4 19 -10 53 -13 75 -3 22 -14 76 -23 120 -15 69 -20 80 -39 83 -16 2 -26 -3
-32 -20z"/>
<path d="M90 1610 c0 -11 2 -20 4 -20 2 0 6 9 9 20 3 11 1 20 -4 20 -5 0 -9
-9 -9 -20z"/>
<path d="M1566 1435 c-26 -26 3 -62 39 -49 20 8 19 50 -1 58 -21 8 -20 8 -38
-9z"/>
<path d="M1475 1313 c0 -104 3 -129 15 -134 8 -4 22 -3 30 1 13 7 16 31 15
132 l0 123 -30 3 -30 3 0 -128z"/>
<path d="M2150 1311 c0 -114 2 -129 18 -133 39 -10 42 -1 42 133 l0 129 -30 0
-30 0 0 -129z"/>
<path d="M590 1306 c0 -129 3 -138 43 -128 14 4 17 16 17 68 0 65 7 77 26 47
6 -10 30 -41 52 -69 32 -41 45 -51 64 -47 23 4 23 6 23 126 l0 122 -32 3 -31
3 2 -65 c0 -37 -2 -66 -5 -66 -3 0 -29 29 -57 65 -39 48 -59 65 -77 65 l-25 0
0 -124z"/>
<path d="M1719 1418 c0 -7 -1 -62 -2 -121 0 -114 5 -130 45 -120 10 3 18 13
17 22 -4 47 0 51 47 51 57 0 104 40 104 90 0 22 -9 41 -29 61 -27 27 -35 29
-105 29 -54 0 -76 -4 -77 -12z m143 -54 c12 -8 10 -40 -5 -52 -7 -6 -27 -10
-44 -10 -24 1 -32 6 -36 24 -7 37 10 55 45 49 17 -3 35 -8 40 -11z"/>
<path d="M885 1356 c-50 -21 -68 -82 -41 -135 17 -32 49 -49 92 -46 33 1 84
29 84 45 0 13 -41 17 -72 6 -22 -8 -31 -7 -45 7 -16 16 -14 17 50 17 69 0 72
2 67 45 -2 29 -42 65 -76 70 -16 2 -43 -2 -59 -9z m71 -51 c18 -13 16 -14 -25
-15 -37 0 -42 2 -31 15 16 19 31 19 56 0z"/>
<path d="M1126 1362 c-4 -3 -24 -5 -46 -4 l-40 3 0 -131 0 -130 30 0 c29 0 30
2 30 45 0 42 1 45 20 35 29 -15 72 -4 98 25 48 56 15 151 -55 159 -17 3 -34 2
-37 -2z m57 -82 c3 -13 -2 -29 -13 -40 -35 -35 -81 0 -65 49 12 38 68 31 78
-9z"/>
<path d="M1303 1359 c-52 -19 -70 -104 -33 -152 24 -30 60 -40 94 -27 14 5 28
6 30 1 3 -5 17 -6 31 -3 25 4 25 6 25 94 l0 89 -37 -1 c-21 -1 -50 1 -64 3
-14 2 -35 0 -46 -4z m84 -65 c9 -24 -6 -61 -28 -67 -26 -7 -61 26 -52 50 13
40 67 51 80 17z"/>
<path d="M2268 1359 c-51 -20 -48 -79 5 -99 76 -28 74 -27 53 -36 -11 -4 -27
-2 -37 4 -20 13 -52 16 -62 6 -13 -14 15 -44 51 -55 31 -9 45 -8 75 5 20 8 37
22 37 30 0 22 17 20 30 -4 6 -10 28 -25 49 -31 33 -10 45 -9 77 7 21 11 39 24
41 30 5 15 -49 25 -64 12 -15 -12 -63 -2 -63 12 0 6 29 10 65 10 45 0 65 4 66
13 5 53 -28 95 -81 102 -60 7 -109 -35 -110 -95 0 -34 0 -34 -15 -13 -9 13
-34 27 -55 33 -49 13 -54 34 -6 24 19 -3 42 -2 51 3 14 8 14 11 -3 26 -24 22
-70 29 -104 16z m267 -60 c5 -5 -9 -9 -34 -9 -38 0 -42 2 -31 15 13 15 45 12
65 -6z"/>
<path d="M1560 1272 c0 -49 2 -91 5 -94 3 -3 17 -3 30 0 24 4 25 7 25 93 l0
89 -30 0 -30 0 0 -88z"/>
<path d="M1942 1284 c3 -70 5 -79 30 -97 23 -17 33 -19 61 -10 18 5 43 6 55 2
30 -11 38 10 37 101 l0 75 -30 3 c-30 3 -30 2 -31 -46 -1 -62 -9 -82 -33 -82
-27 0 -31 9 -32 74 -2 55 -2 56 -31 56 l-29 0 3 -76z"/>
<path d="M806 992 c-3 -5 1 -9 9 -9 8 0 12 4 9 9 -3 4 -7 8 -9 8 -2 0 -6 -4
-9 -8z"/>
<path d="M1410 985 c0 -8 -9 -15 -20 -15 -11 0 -23 -7 -26 -15 -9 -22 13 -44
36 -38 16 4 20 14 20 44 0 22 -2 39 -5 39 -3 0 -5 -7 -5 -15z m0 -39 c0 -15
-24 -28 -34 -19 -13 14 -5 33 14 33 11 0 20 -6 20 -14z"/>
<path d="M1622 960 c0 -36 2 -40 9 -22 5 12 4 32 0 45 -7 17 -9 13 -9 -23z"/>
<path d="M1721 958 c1 -38 2 -39 8 -13 l6 29 18 -27 c19 -30 34 -35 34 -12 0
8 -4 12 -8 10 -4 -3 -19 9 -33 26 l-26 31 1 -44z"/>
<path d="M2013 960 c0 -25 2 -35 4 -22 2 12 2 32 0 45 -2 12 -4 2 -4 -23z"/>
<path d="M2103 993 c-7 -2 -13 -21 -13 -41 0 -26 3 -33 9 -23 5 8 7 20 4 28
-3 7 0 20 7 28 13 16 13 16 -7 8z"/>
<path d="M870 970 c0 -21 15 -27 25 -10 3 6 1 10 -5 10 -6 0 -8 5 -5 10 3 6 1
10 -4 10 -6 0 -11 -9 -11 -20z"/>
<path d="M1087 955 c-9 -19 -12 -35 -7 -35 6 0 10 4 10 8 0 4 9 8 20 9 11 1
20 -2 20 -8 0 -12 27 -12 35 1 3 6 -1 7 -10 4 -11 -4 -18 3 -26 25 -14 40 -21
39 -42 -4z m33 6 c0 -6 -4 -13 -10 -16 -5 -3 -10 1 -10 9 0 9 5 16 10 16 6 0
10 -4 10 -9z"/>
<path d="M1153 970 c1 -15 6 -18 23 -14 18 5 23 1 27 -18 5 -22 5 -22 4 2 -2
18 -9 26 -25 28 -12 2 -20 8 -17 13 4 5 2 9 -4 9 -5 0 -9 -9 -8 -20z"/>
<path d="M1578 977 c-7 -19 6 -60 20 -63 7 -1 8 0 2 3 -12 6 -13 40 -1 45 5 2
3 8 -4 15 -10 9 -14 9 -17 0z"/>
<path d="M1776 973 c-6 -14 -5 -15 5 -6 7 7 10 15 7 18 -3 3 -9 -2 -12 -12z"/>
<path d="M2137 974 c3 -9 0 -20 -8 -26 -12 -8 -11 -9 1 -5 17 4 27 47 11 47
-6 0 -8 -7 -4 -16z"/>
<path d="M2233 955 c0 -22 2 -30 4 -17 2 12 2 30 0 40 -3 9 -5 -1 -4 -23z"/>
<path d="M2382 965 c0 -16 2 -22 5 -12 2 9 2 23 0 30 -3 6 -5 -1 -5 -18z"/>
<path d="M1250 970 c0 -5 5 -10 11 -10 5 0 7 5 4 10 -3 6 -8 10 -11 10 -2 0
-4 -4 -4 -10z"/>
<path d="M800 965 c0 -3 12 -10 27 -16 21 -8 24 -12 13 -19 -8 -5 -22 -5 -34
1 -20 10 -20 10 -2 -5 14 -11 24 -13 37 -5 26 13 24 24 -6 37 -29 13 -35 14
-35 7z"/>
<path d="M913 954 c-7 -20 22 -45 43 -37 8 3 14 16 14 29 0 19 -5 24 -25 24
-15 0 -28 -7 -32 -16z m47 -7 c0 -19 -10 -27 -26 -20 -21 8 -17 33 6 33 11 0
20 -6 20 -13z"/>
<path d="M991 948 c7 -16 15 -28 19 -28 4 0 12 12 19 28 10 25 10 26 -4 8 -15
-20 -15 -20 -30 0 -14 18 -14 17 -4 -8z"/>
<path d="M1227 963 c-13 -12 -7 -32 12 -43 14 -7 22 -7 26 0 4 6 3 10 -2 9
-25 -4 -35 3 -30 21 5 21 4 24 -6 13z"/>
<path d="M1296 963 c-12 -13 -6 -41 12 -48 14 -5 15 -4 5 6 -19 19 -16 41 5
37 10 -2 16 -11 14 -21 -2 -9 2 -17 8 -17 5 0 10 10 10 23 0 17 -6 23 -24 25
-13 1 -26 -1 -30 -5z"/>
<path d="M1461 960 c0 -8 4 -22 9 -30 9 -13 11 -13 20 0 8 13 11 13 19 1 7
-11 11 -10 20 7 14 26 14 43 0 19 -10 -18 -11 -18 -25 0 -12 17 -13 17 -14 1
0 -10 -4 -18 -9 -18 -5 0 -12 8 -14 18 -3 12 -5 13 -6 2z"/>
<path d="M1552 940 c0 -19 2 -27 5 -17 2 9 2 25 0 35 -3 9 -5 1 -5 -18z"/>
<path d="M1655 960 c3 -5 11 -10 16 -10 6 0 7 5 4 10 -3 6 -11 10 -16 10 -6 0
-7 -4 -4 -10z"/>
<path d="M1807 963 c-4 -3 -7 -16 -6 -27 0 -12 3 -15 6 -8 2 6 13 12 24 12 10
0 19 7 19 15 0 15 -31 21 -43 8z m30 -9 c-3 -3 -12 -4 -19 -1 -8 3 -5 6 6 6
11 1 17 -2 13 -5z"/>
<path d="M1867 951 c-5 -22 2 -35 23 -39 12 -3 13 -1 3 9 -19 19 -16 41 5 37
10 -2 16 -11 14 -23 -2 -16 -1 -17 7 -6 14 21 2 41 -24 41 -14 0 -25 -7 -28
-19z"/>
<path d="M1947 963 c-12 -11 -8 -41 6 -46 26 -8 47 5 45 29 -2 17 -8 24 -24
24 -11 0 -24 -3 -27 -7z m39 -14 c7 -12 -15 -31 -28 -23 -4 3 -8 12 -8 20 0
17 26 19 36 3z"/>
<path d="M2038 947 c-3 -19 -2 -25 4 -19 6 6 8 18 6 28 -3 14 -5 12 -10 -9z"/>
<path d="M2255 961 c-3 -5 4 -12 15 -16 28 -9 25 -28 -2 -20 -21 5 -21 5 -5
-6 28 -17 49 7 24 26 -13 10 -15 14 -5 18 9 4 7 6 -4 6 -9 1 -19 -3 -23 -8z"/>
<path d="M2314 955 c-9 -22 22 -53 37 -38 8 8 7 11 -6 10 -10 -1 -19 6 -20 16
-2 12 3 17 18 17 18 0 19 -2 7 -10 -13 -8 -12 -10 3 -10 26 0 16 24 -11 28
-14 2 -25 -3 -28 -13z"/>
<path d="M1248 943 c6 -2 18 -2 25 0 6 3 1 5 -13 5 -14 0 -19 -2 -12 -5z"/>
<path d="M2160 942 c0 -5 7 -15 15 -22 8 -7 15 -9 15 -6 0 4 -7 14 -15 22 -8
9 -15 11 -15 6z"/>
<path d="M2200 935 c0 -8 4 -15 8 -15 5 0 9 7 9 15 0 8 -4 15 -9 15 -4 0 -8
-7 -8 -15z"/>
<path d="M870 936 c0 -2 8 -10 18 -17 15 -13 16 -12 3 4 -13 16 -21 21 -21 13z"/>
<path d="M1825 920 c-3 -6 1 -7 9 -4 18 7 21 14 7 14 -6 0 -13 -4 -16 -10z"/>
<path d="M251 803 c81 -134 155 -229 260 -333 85 -84 86 -77 2 10 -105 108
-164 181 -229 286 -25 41 -48 74 -51 74 -2 0 6 -17 18 -37z"/>
<path d="M2539 513 l-24 -28 28 24 c15 14 27 26 27 28 0 8 -8 1 -31 -24z"/>
<path d="M619 377 c15 -19 71 -61 71 -54 0 2 -19 19 -42 37 -24 19 -37 26 -29
17z"/>
<path d="M917 239 c7 -7 15 -10 18 -7 3 3 -2 9 -12 12 -14 6 -15 5 -6 -5z"/>
<path d="M1178 78 c5 -5 16 -8 23 -6 8 3 3 7 -10 11 -17 4 -21 3 -13 -5z"/>
<path d="M1596 32 c-3 -5 8 -6 25 -4 16 2 29 6 29 8 0 8 -49 4 -54 -4z"/>
</g>
</svg>
