<svg class="css-6cjp67" width="727px" height="360px" viewBox="0 0 727 441" version="1.1" xmlns="http://www.w3.org/2000/svg"><g id="Page-1" stroke="none" stroke-width="1" fill="none" fill-rule="evenodd"><g id="Artboard" transform="translate(-104.000000, -472.000000)"><g id="Group-2" transform="translate(103.552734, 471.574219)"><g id="Group-3" transform="translate(0.000000, 0.000000)"><path d="M4.25571876,116.527463 L611.799169,0.635427403 C613.721048,0.268819172 615.626077,1.34625485 616.302225,3.18224039 L726.403075,302.145689 C727.166521,304.218717 726.104894,306.518134 724.031865,307.281579 C723.851863,307.347869 723.667325,307.401126 723.47968,307.440936 L92.9275806,441.217582 C90.8564411,441.656991 88.8016309,440.406357 88.240477,438.364836 L1.14827564,121.516778 C0.562764469,119.386644 1.81492885,117.185178 3.94506307,116.599667 C4.04761389,116.571479 4.15124815,116.547392 4.25571876,116.527463 Z" id="Rectangle" fill="#ffeab6"></path><path d="M1.17913493,119.630909 L1.38530004,120.379091 L88.240477,436.364836 C88.8016309,438.406357 90.8564411,439.656991 92.9275806,439.217582 L92.9275806,439.217582 L723.47968,305.440936 C723.667325,305.401126 723.851863,305.347869 724.031865,305.281579 C725.311835,304.810197 726.206226,303.753256 726.523512,302.52559 C727.033809,304.492411 725.978965,306.56451 724.031865,307.281579 C723.851863,307.347869 723.667325,307.401126 723.47968,307.440936 L92.9275806,441.217582 C90.8564411,441.656991 88.8016309,440.406357 88.240477,438.364836 L1.42136156,122.510285 C1.3973275,122.422848 1.37627373,122.334618 1.35823676,122.245749 L1.04520528,120.703432 C0.968636698,120.326176 1.02381424,119.952769 1.17913493,119.630909 Z" id="Combined-Shape" fill="#000000" opacity="0.300000012"></path></g></g></g></g></svg>
